Coordinates
version=1
nRows=13
nColumns=38
inDegrees=yes

Units are S.I. units (second, meters, Newtons, ...)
If the header above contains a line with 'inDegrees', this indicates whether rotational values are in degrees (yes) or radians (no).

endheader
time	pelvis_tilt	pelvis_list	pelvis_rotation	pelvis_tx	pelvis_ty	pelvis_tz	hip_flexion_r	hip_adduction_r	hip_rotation_r	knee_angle_r	ankle_angle_r	subtalar_angle_r	mtp_angle_r	hip_flexion_l	hip_adduction_l	hip_rotation_l	knee_angle_l	ankle_angle_l	subtalar_angle_l	mtp_angle_l	lumbar_extension	lumbar_bending	lumbar_rotation	arm_flex_r	arm_add_r	arm_rot_r	elbow_flex_r	pro_sup_r	wrist_flex_r	wrist_dev_r	arm_flex_l	arm_add_l	arm_rot_l	elbow_flex_l	pro_sup_l	wrist_flex_l	wrist_dev_l
      0.70800000	    -11.58591581	    -12.21274917	      8.10483918	      0.75356152	      0.94760889	      0.20532907	     82.79142070	     -3.69602412	    -13.49159489	   -104.90083580	      3.47881589	     -5.67562595	      0.00000000	    -31.84977122	    -14.78900795	     -8.36404169	     -6.68051046	    -32.46453314	      8.58997489	      0.00000000	      3.38944666	     14.13785846	    -14.83811704	    -83.34050314	    -21.75262431	    -11.26938016	     64.20252345	     60.00586988	      0.00000000	      0.00000000	     43.41497937	    -16.58115796	      8.93886579	    128.65213396	     60.00014031	      0.00000000	      0.00000000
      0.71200000	    -11.58040990	    -11.88678620	      7.55708285	      0.79178735	      0.94808762	      0.20584875	     83.08140006	     -3.36868721	    -12.95537033	   -100.78981800	      4.23015692	     -6.34277599	      0.00000000	    -32.60058556	    -14.17480617	     -7.39138350	     -9.34096700	    -31.44223131	      6.65804671	      0.00000000	      3.11123347	     13.83419992	    -14.57444978	    -84.10101412	    -21.44218322	    -12.12736167	     63.98249622	     60.00586988	      0.00000000	      0.00000000	     44.82044434	    -16.67599802	      9.25848938	    131.15466476	     60.00014031	      0.00000000	      0.00000000
      0.71600000	    -11.31888750	    -10.46629220	      6.93704782	      0.82941993	      0.94888019	      0.20467843	     82.91140536	     -3.53959939	    -11.57658438	    -96.70550200	      4.41281932	     -6.99162259	      0.00000000	    -33.36504571	    -12.22802613	     -5.03645104	    -12.40469091	    -30.20839413	      4.41239256	      0.00000000	      2.21656330	     12.80088944	    -14.20706773	    -84.45321592	    -20.76950654	    -14.38138845	     63.93090211	     60.00586988	      0.00000000	      0.00000000	     45.87508928	    -17.15066573	      9.19689527	    133.62309769	     60.00014031	      0.00000000	      0.00000000
      0.72000000	    -11.42813707	     -9.54736670	      6.03792427	      0.86640797	      0.94965036	      0.20472859	     82.71017713	     -3.22789411	    -10.73857120	    -92.10235643	      5.06619909	     -7.07474459	      0.00000000	    -33.24420242	    -10.73917753	     -3.93107257	    -16.44309131	    -28.46568620	      4.39007498	      0.00000000	      1.91131702	     11.94770975	    -13.59471722	    -84.49370327	    -20.72624796	    -15.03957843	     63.67592330	     60.00586988	      0.00000000	      0.00000000	     46.55242876	    -17.48917364	      9.61306378	    135.91488975	     60.00014031	      0.00000000	      0.00000000
      0.72400000	    -11.55299028	     -8.70780826	      5.32938569	      0.90343994	      0.95080599	      0.20476807	     82.07530110	     -2.94201524	    -10.01058442	    -87.14584005	      5.98223386	     -6.86039495	      0.00000000	    -32.75241591	     -9.44375789	     -3.01219491	    -20.89920809	    -27.44293858	      4.69077618	      0.00000000	      1.22544239	     11.48715548	    -13.20179243	    -83.75109552	    -20.38019341	    -16.17759539	     62.99910613	     60.00586988	      0.00000000	      0.00000000	     46.51453784	    -18.29174439	      9.56961542	    138.87355610	     60.00014031	      0.00000000	      0.00000000
      0.72800000	    -11.58024850	     -8.13522990	      4.74480907	      0.94086207	      0.95194562	      0.20420859	     80.97027641	     -2.78466826	     -9.72394317	    -81.99941306	      6.80844306	     -6.09442734	      0.00000000	    -32.26868828	     -8.43380009	     -2.51754801	    -25.40484722	    -27.31018262	      5.51361336	      0.00000000	      0.85233434	     11.30549864	    -12.51040657	    -83.29148842	    -19.83217482	    -17.13658185	     62.67428969	     60.00586988	      0.00000000	      0.00000000	     45.74627037	    -18.68146762	      9.90473291	    140.61273355	     60.00014031	      0.00000000	      0.00000000
      0.73200000	    -11.46220444	     -8.11346874	      4.10289879	      0.97847236	      0.95338937	      0.20415712	     79.39686054	     -2.30797102	     -9.97687434	    -76.64312118	      7.50867017	     -4.53649874	      0.00000000	    -31.82618811	     -8.02033785	     -2.86853467	    -30.09059596	    -27.90543820	      6.93450072	      0.00000000	      0.35960376	     11.68417396	    -11.81932979	    -82.61894030	    -19.42330745	    -18.25944695	     62.53620970	     60.00586988	      0.00000000	      0.00000000	     44.67847183	    -18.89160382	     10.20439167	    141.99556013	     60.00014031	      0.00000000	      0.00000000
      0.73600000	    -11.33701648	     -7.73106966	      3.55918144	      1.01633202	      0.95485655	      0.20416086	     77.68531181	     -2.03911092	     -9.98701046	    -71.33652335	      7.68591963	     -2.48405748	      0.00000000	    -31.31071324	     -7.33004808	     -2.97125863	    -34.74350086	    -28.92365187	      8.09921098	      0.00000000	     -0.23874528	     11.66139122	    -11.26275708	    -81.65112152	    -19.18164329	    -18.95664491	     62.43826858	     60.00586988	      0.00000000	      0.00000000	     43.13947119	    -19.41315029	     10.62632774	    143.26800218	     60.00014031	      0.00000000	      0.00000000
      0.74000000	    -10.81446200	     -7.81965990	      3.42678119	      1.05390710	      0.95685144	      0.20395561	     75.32568117	     -1.88896995	    -10.49112057	    -65.91696094	      7.78496325	      0.23304317	      0.00000000	    -30.97258423	     -7.34052426	     -3.20652455	    -39.67652587	    -29.62723676	      9.40703365	      0.00000000	     -1.09316149	     12.04144366	    -10.74280874	    -80.59500263	    -18.79571956	    -19.54984552	     62.61754930	     60.00586988	      0.00000000	      0.00000000	     41.62097434	    -19.56320133	     11.51703949	    143.61813842	     60.00014031	      0.00000000	      0.00000000
      0.74400000	    -10.27848095	     -8.04738677	      3.29115779	      1.09194513	      0.95896609	      0.20406952	     72.81168584	     -1.60696950	    -11.15776895	    -60.56047082	      7.38122451	      3.19393628	      0.00000000	    -30.64813342	     -7.56151411	     -3.65159084	    -44.53919310	    -30.34325605	     10.27436938	      0.00000000	     -1.90669558	     12.60326994	    -10.50018816	    -79.65955905	    -18.79233331	    -20.00838313	     63.46624562	     60.00586988	      0.00000000	      0.00000000	     39.31898903	    -19.89851284	     12.00122090	    143.63924202	     60.00014031	      0.00000000	      0.00000000
      0.74800000	     -9.95610451	     -7.71083909	      3.06756261	      1.13012274	      0.96089937	      0.20365889	     70.49966515	     -1.54583716	    -11.33985555	    -55.45727129	      6.88014457	      6.83572050	      0.00000000	    -29.92461019	     -6.95837119	     -3.66676881	    -49.62914347	    -30.61368893	      9.92859315	      0.00000000	     -2.46182116	     12.51620014	    -10.14512490	    -78.61584291	    -18.99351631	    -20.18495883	     63.79062242	     60.00586988	      0.00000000	      0.00000000	     36.73072010	    -20.16708163	     12.73631585	    143.11777066	     60.00014031	      0.00000000	      0.00000000
      0.75200000	     -9.48936205	     -7.74775760	      3.40400784	      1.16776123	      0.96253202	      0.20359602	     68.01708534	     -1.71033514	    -12.01988960	    -50.69492124	      6.53551324	     10.54384909	      0.00000000	    -29.24416297	     -7.30231964	     -3.42742038	    -54.75690922	    -30.32579875	     11.38636989	      0.00000000	     -3.30965066	     12.84162009	    -10.33147177	    -77.22175356	    -19.07710799	    -20.32300000	     64.82238053	     60.00586988	      0.00000000	      0.00000000	     34.05429760	    -20.64899618	     13.12476408	    142.41871745	     60.00014031	      0.00000000	      0.00000000
      0.75600000	     -9.12846998	     -7.57452495	      3.37631039	      1.20535143	      0.96394394	      0.20330612	     65.71681181	     -1.69680163	    -12.50652606	    -46.23090845	      6.04985538	     14.15861363	      0.00000000	    -28.18781099	     -7.23762406	     -3.40581367	    -60.16976053	    -30.28081165	     12.43339525	      0.00000000	     -4.01708033	     12.85962358	    -10.09124889	    -75.83414141	    -19.29883490	    -20.25234104	     65.91799244	     60.00586988	      0.00000000	      0.00000000	     31.31497443	    -20.85441845	     13.80020322	    141.06791858	     60.00014031	      0.00000000	      0.00000000
